<?xml version="1.0" encoding="utf-8"?>
<svg version="1.1" xmlns="http://www.w3.org/2000/svg" viewBox="85.5 0 342 342">
<rect y="0" fill="#FFFFFF" width="513" height="342"/>
<path fill="#6DA544" d="M364.9,267.7l-9.8-13.2c-19.8,14.2-59.7,31.6-92,31.6c-31.6,0-70.2-15.1-92-31.6l-9.8,13.2
  c8.8,9.1,41.4,23.8,78,33.9c-3.4,5.3-1.4,5.4,2.3,9.5c7.5-5.8,15.3-1.3,22-6.4c6.6,5.1,14.4,0.6,22,6.4c4.8-4.9,4.8-4.9,2.2-9.8
  C323.9,291,355.6,277,364.9,267.7z"/>
<path fill="#DB7D00" d="M137.5,173.2c0,0,0.2,70.5,78.5,68.6l4.7,14.6h9.3c0,0-7.8-43.2,63.2-43.6c0,0,0-29,29-29s43.6,0,43.6,0
  s-69.3-54.4,61.9-124l1.9-13.8c0,0-136.5,74.6-209,60.1c0,0,11.2,44.7-11.4,44.7c-11.3,0-10.2-8.5-33.9-8.5
  c-19.7,0-18.2,20.7-27.6,20.5s-19.8-12.9-20.6-10.7C126.3,154.3,137.5,173.2,137.5,173.2z"/>
</svg>
